<svg id="Lager_1" data-name="Lager 1" xmlns="http://www.w3.org/2000/svg" xmlns:xlink="http://www.w3.org/1999/xlink" viewBox="0 0 931.78 683.43"><defs><style>.cls-1{fill:url(#Namnlös_övertoning_30);}.cls-2,.cls-3,.cls-4{fill:none;stroke:#fff;stroke-width:4px;}.cls-2,.cls-3{stroke-linecap:round;stroke-linejoin:round;}.cls-3{stroke-dasharray:12.02 12.02;}.cls-4{stroke-miterlimit:10;}.cls-5{fill:#fff;opacity:0.23;}</style><linearGradient id="Namnlös_övertoning_30" x1="24.7" y1="336.09" x2="905.28" y2="336.09" gradientUnits="userSpaceOnUse"><stop offset="0" stop-color="#7bb7ec"/><stop offset="0.5" stop-color="#6689e0"/><stop offset="0.57" stop-color="#6d8ae1"/><stop offset="0.67" stop-color="#818de5"/><stop offset="0.79" stop-color="#a292ec"/><stop offset="0.92" stop-color="#d099f4"/><stop offset="1" stop-color="#ee9dfa"/></linearGradient></defs><title>fluffy_cloud_contact</title><path class="cls-1" d="M184,46.9A36.23,36.23,0,0,1,186.38,44c12.53-12.08,28.91-22.45,46-26.43,18.82-4.38,38.73-2.2,56.94,3.78a136.19,136.19,0,0,1,26.44,12c7,4.14,14.06,12.9,22.4,12,4.32-.46,8-.28,11.59-2.74,3.24-2.23,6.54-4.35,9.95-6.32A147.61,147.61,0,0,1,381.61,26a159.55,159.55,0,0,1,46.63-9.89,161.65,161.65,0,0,1,55.12,6.12,150.39,150.39,0,0,1,25.77,10.21c7.73,3.94,15.94,12.41,25.11,10.42,3.77-.82,6.46-3.1,9.37-5.46,31.11-25.19,74.24-35.08,113-24.63A87.94,87.94,0,0,1,696.36,36a66,66,0,0,1,13,18.64c3.1,6.8,3.11,14.42,6.81,20.81a3,3,0,0,0,1.14,1.27,3,3,0,0,0,1.31.2,59.6,59.6,0,0,0,6.54-.37c4.7-.52,8.78-3.06,13.21-4.75a115.17,115.17,0,0,1,43.8-7.46c19.68.53,39.29,6.36,55.39,17.85a87.36,87.36,0,0,1,20.78,21.2,97.36,97.36,0,0,1,17.1,48.84,87.28,87.28,0,0,1-2.05,25.68,77.51,77.51,0,0,1-3.95,12.26c-1.74,4.17-5,8.07-2.78,12.74,1.38,2.95,4.73,4.59,7,6.88,2.57,2.64,5.1,5.28,7.45,8.13a107.09,107.09,0,0,1,12.46,18.93,102.5,102.5,0,0,1,3.06,88.82,106,106,0,0,1-11.43,20.18c-3.63,5-12,11.15-10,18,1.54,5.19,5.63,8.53,8.54,12.92a91.76,91.76,0,0,1,6.68,11.94,101.14,101.14,0,0,1,8.15,26.72c5.38,33.26-5,70-31.08,92.25-12.89,11-28.67,18.73-39.64,31.64-12.49,14.7-17.25,34.32-26.88,51a99.39,99.39,0,0,1-68.67,47.67,98.19,98.19,0,0,1-42.38-2.38,100.22,100.22,0,0,1-19.86-7.88c-2.41-1.27-13.63-10-15.25-8.61-1.43,1.27-1.17,3.78-1.6,5.49a24.38,24.38,0,0,1-2.65,6.24c-3.07,5.32-7.8,9-13,12.05-28.62,16.58-62.51,23-95.31,19.83a168.26,168.26,0,0,1-55.58-15.14A155.2,155.2,0,0,1,461.82,633c-3.36-2.43-5.82-6.53-9.88-7.59-4.7-1.24-9.82.38-13.46,3.46A175.88,175.88,0,0,1,420,643c-13.12,8.43-27.82,14.71-43.41,16.52a71.52,71.52,0,0,1-37.75-6A61.83,61.83,0,0,1,323,643.17a53,53,0,0,1-6.51-7c-1.78-2.32-3.09-5.71-5.36-7.54a8,8,0,0,0-3-1.79c-2.72-.66-6.41,4.8-8.49,6.48a81.27,81.27,0,0,1-10,6.9,86.87,86.87,0,0,1-22.43,9.24,80.72,80.72,0,0,1-86.15-29.72,87.11,87.11,0,0,1-12-21.12,82.38,82.38,0,0,1-3.6-11.6c-.77-3.35-.59-10.56-3.75-12.76-2.41-1.68-7.79.88-10.84,1a97.31,97.31,0,0,1-28.1-3.38,101,101,0,0,1-48-29.06A91.11,91.11,0,0,1,64.2,528.66a94,94,0,0,1-12.1-32.81,102.05,102.05,0,0,1,1.3-40.67,98.06,98.06,0,0,1,6.73-19.27,59.41,59.41,0,0,1,4.87-9c2-2.75,3.59-4.23,1.68-7.87-2.3-4.39-7.25-7.61-10.71-11.08a100.54,100.54,0,0,1-9.3-10.79c-14-18.74-21.42-42.06-21.94-65.35-.53-23.14,6-46.6,20.14-65.11,6.4-8.36,14.4-16.6,15.25-27.09.74-9.26-4.32-17.83-8-26.36-13.39-31.3-7.56-69.94,14.47-95.89a92.67,92.67,0,0,1,43.14-28.08,95.32,95.32,0,0,1,25.35-4.26c8.24-.25,14,3.61,22-.87,3.78-2.12,5.06-5.12,7-8.66s4.54-7,6.86-10.46C175.2,58.91,179.47,52.79,184,46.9Z"/><path class="cls-2" d="M140.08,431.53q3,.18,6,.25"/><path class="cls-3" d="M158.09,431.73c39.63-1.39,80.45-14.45,114.81-32.73,40-21.27,82-39.78,119.65-65.49,39.83-27.16,89.42-67.45,92.79-119,1.13-17.33-9-31.22-27.66-29.87-9.29.67-17.91,4.92-26,9.47-29.54,16.54-56.36,39.07-75.86,66.9-18.34,26.19-37.24,65.82-23,97.7,4.42,9.9,12.07,18,19.92,25.45,15.22,14.51,32.06,27.83,51.58,35.67,61.84,24.88,126.56-8.38,177.72-41.76a677.66,677.66,0,0,0,57.92-41.81"/><path class="cls-2" d="M644.5,332.48c1.53-1.29,3.06-2.58,4.57-3.88"/><polygon class="cls-2" points="651.53 270.37 763.48 222.46 678.32 278.95 671.63 340.72 651.53 270.37"/><polygon class="cls-2" points="598.46 262.69 603.13 261.55 608.44 260.25 763.48 222.46 745.16 333.43 678.32 278.95 763.48 222.46 756.18 225.59 651.53 270.37 598.46 262.69"/><line class="cls-4" x1="703.85" y1="299.76" x2="671.63" y2="340.72"/><polygon class="cls-5" points="606.91 261.76 747.73 228.61 648.16 269.81 606.91 261.76"/><polygon class="cls-5" points="678.88 278.52 672.44 337.92 703.03 299.32 678.88 278.52"/><polygon class="cls-5" points="678.32 278.95 745.16 333.43 763.48 222.46 678.32 278.95"/></svg>