<svg id="Lager_1" data-name="Lager 1" xmlns="http://www.w3.org/2000/svg" xmlns:xlink="http://www.w3.org/1999/xlink" viewBox="0 0 1500 809.39"><defs><style>.cls-1{fill:url(#Namnlös_övertoning_30);}</style><linearGradient id="Namnlös_övertoning_30" x1="96.04" y1="414.71" x2="1403.96" y2="414.71" gradientUnits="userSpaceOnUse"><stop offset="0" stop-color="#7bb7ec"/><stop offset="0.5" stop-color="#6689e0"/><stop offset="0.57" stop-color="#6d8ae1"/><stop offset="0.67" stop-color="#818de5"/><stop offset="0.79" stop-color="#a292ec"/><stop offset="0.92" stop-color="#d099f4"/><stop offset="1" stop-color="#ee9dfa"/></linearGradient></defs><title>Fluffy cloud</title><path class="cls-1" d="M267.79,137.18a179.05,179.05,0,0,1,27-4.53c39-3.55,79.39,5.5,112.24,27.12C436,114,488,83.59,542.11,80.92S651,103.35,684.31,146.09C724.19,105,781.74,81.67,839,83.37s113.3,28.43,150.66,71.83c61.56-38.72,138.1-52.89,209.44-38.77,44.29,8.77,92.18,35.34,98.21,80.09,36.32-.61,71.8,23.35,84.8,57.28s2.6,75.46-24.83,99.27c48.47,24.74,59.77,95.56,31.27,141.93s-85.45,69.09-139.86,70.32c-7,71.07-83.46,126.89-153.3,112-16.13-3.44-32.82-10-48.57-5.1-15,4.69-24.88,18.53-36.47,29.16-24.64,22.58-59.45,31.56-92.86,30.75s-65.94-10.5-97.59-21.23c-17-5.77-35.56-11.89-52.51-5.94-11.15,3.92-19.87,12.55-29.39,19.56-30.58,22.53-71.41,28.68-108.63,21.08s-71-28-99-53.6c-5.67-5.2-11.42-10.79-18.78-13-10.33-3.16-21.3.92-31.69,3.91-28.27,8.14-60,7.9-85.79-6.24s-43.86-43.93-39.09-73C298.88,617.39,232.81,629,189,591.37,156.12,563.2,158.22,513.48,171,473.59c-41-12.65-72.11-52.23-74.8-95s23.28-85.93,62.34-103.6c10.19-4.62,22.17-8.56,26.94-18.68,4.14-8.82,1.21-19.11.18-28.8a70.75,70.75,0,0,1,7.2-38.58c6.18-12.5,15.74-20.42,25.57-29.77,9.29-8.84,23.58-13.91,35.61-18Q260.85,138.9,267.79,137.18Z"/></svg>